<mxfile host="app.diagrams.net" modified="2021-11-24T06:58:57.256Z" agent="5.0 (X11; Linux x86_64) AppleWebKit/537.36 (KHTML, like Gecko) Chrome/92.0.4515.159 Safari/537.36" etag="hzIhU9aZD2bLNq1Ti2Ld" version="15.7.3" type="github">
  <diagram id="BuKEiJHXuKlsIns7RW6W" name="Page-1">
    <mxGraphModel dx="1011" dy="489" grid="1" gridSize="10" guides="1" tooltips="1" connect="1" arrows="1" fold="1" page="1" pageScale="1" pageWidth="827" pageHeight="1169" math="0" shadow="0">
      <root>
        <mxCell id="0" />
        <mxCell id="1" parent="0" />
        <mxCell id="6icmKqiXZENg0bmrEhfW-1" value="47" style="rounded=0;whiteSpace=wrap;html=1;" vertex="1" parent="1">
          <mxGeometry x="120" y="90" width="120" height="60" as="geometry" />
        </mxCell>
        <mxCell id="6icmKqiXZENg0bmrEhfW-2" value="11" style="rounded=0;whiteSpace=wrap;html=1;" vertex="1" parent="1">
          <mxGeometry x="294" y="90" width="120" height="60" as="geometry" />
        </mxCell>
        <mxCell id="6icmKqiXZENg0bmrEhfW-3" value="42" style="rounded=0;whiteSpace=wrap;html=1;" vertex="1" parent="1">
          <mxGeometry x="470" y="90" width="120" height="60" as="geometry" />
        </mxCell>
        <mxCell id="6icmKqiXZENg0bmrEhfW-4" value="13" style="rounded=0;whiteSpace=wrap;html=1;" vertex="1" parent="1">
          <mxGeometry x="680" y="90" width="120" height="60" as="geometry" />
        </mxCell>
        <mxCell id="6icmKqiXZENg0bmrEhfW-5" value="58" style="rounded=0;whiteSpace=wrap;html=1;" vertex="1" parent="1">
          <mxGeometry x="210" y="200" width="120" height="60" as="geometry" />
        </mxCell>
        <mxCell id="6icmKqiXZENg0bmrEhfW-6" value="100" style="rounded=0;whiteSpace=wrap;html=1;" vertex="1" parent="1">
          <mxGeometry x="310" y="330" width="120" height="60" as="geometry" />
        </mxCell>
        <mxCell id="6icmKqiXZENg0bmrEhfW-7" value="113" style="rounded=0;whiteSpace=wrap;html=1;" vertex="1" parent="1">
          <mxGeometry x="414" y="460" width="120" height="60" as="geometry" />
        </mxCell>
        <mxCell id="6icmKqiXZENg0bmrEhfW-8" value="" style="endArrow=classic;html=1;rounded=0;exitX=0.574;exitY=1.048;exitDx=0;exitDy=0;exitPerimeter=0;entryX=0.346;entryY=-0.017;entryDx=0;entryDy=0;entryPerimeter=0;" edge="1" parent="1" source="6icmKqiXZENg0bmrEhfW-5" target="6icmKqiXZENg0bmrEhfW-6">
          <mxGeometry width="50" height="50" relative="1" as="geometry">
            <mxPoint x="390" y="280" as="sourcePoint" />
            <mxPoint x="390" y="308" as="targetPoint" />
          </mxGeometry>
        </mxCell>
        <mxCell id="6icmKqiXZENg0bmrEhfW-11" value="" style="endArrow=classic;html=1;rounded=0;entryX=0.42;entryY=-0.063;entryDx=0;entryDy=0;entryPerimeter=0;exitX=0.695;exitY=1.054;exitDx=0;exitDy=0;exitPerimeter=0;" edge="1" parent="1" source="6icmKqiXZENg0bmrEhfW-6" target="6icmKqiXZENg0bmrEhfW-7">
          <mxGeometry width="50" height="50" relative="1" as="geometry">
            <mxPoint x="420" y="290" as="sourcePoint" />
            <mxPoint x="470" y="240" as="targetPoint" />
          </mxGeometry>
        </mxCell>
        <mxCell id="6icmKqiXZENg0bmrEhfW-13" value="" style="endArrow=classic;html=1;rounded=0;exitX=0.5;exitY=1;exitDx=0;exitDy=0;entryX=0.5;entryY=0;entryDx=0;entryDy=0;" edge="1" parent="1" source="6icmKqiXZENg0bmrEhfW-1" target="6icmKqiXZENg0bmrEhfW-5">
          <mxGeometry width="50" height="50" relative="1" as="geometry">
            <mxPoint x="420" y="290" as="sourcePoint" />
            <mxPoint x="470" y="240" as="targetPoint" />
          </mxGeometry>
        </mxCell>
        <mxCell id="6icmKqiXZENg0bmrEhfW-14" value="" style="endArrow=classic;html=1;rounded=0;exitX=0.5;exitY=1;exitDx=0;exitDy=0;entryX=0.62;entryY=-0.018;entryDx=0;entryDy=0;entryPerimeter=0;" edge="1" parent="1" source="6icmKqiXZENg0bmrEhfW-2" target="6icmKqiXZENg0bmrEhfW-5">
          <mxGeometry width="50" height="50" relative="1" as="geometry">
            <mxPoint x="420" y="290" as="sourcePoint" />
            <mxPoint x="470" y="240" as="targetPoint" />
          </mxGeometry>
        </mxCell>
        <mxCell id="6icmKqiXZENg0bmrEhfW-15" value="" style="endArrow=classic;html=1;rounded=0;exitX=0.5;exitY=1;exitDx=0;exitDy=0;entryX=0.5;entryY=0;entryDx=0;entryDy=0;" edge="1" parent="1" source="6icmKqiXZENg0bmrEhfW-3" target="6icmKqiXZENg0bmrEhfW-6">
          <mxGeometry width="50" height="50" relative="1" as="geometry">
            <mxPoint x="420" y="290" as="sourcePoint" />
            <mxPoint x="470" y="240" as="targetPoint" />
          </mxGeometry>
        </mxCell>
        <mxCell id="6icmKqiXZENg0bmrEhfW-16" value="" style="endArrow=classic;html=1;rounded=0;exitX=0.5;exitY=1;exitDx=0;exitDy=0;entryX=0.604;entryY=-0.082;entryDx=0;entryDy=0;entryPerimeter=0;" edge="1" parent="1" source="6icmKqiXZENg0bmrEhfW-4" target="6icmKqiXZENg0bmrEhfW-7">
          <mxGeometry width="50" height="50" relative="1" as="geometry">
            <mxPoint x="420" y="290" as="sourcePoint" />
            <mxPoint x="470" y="240" as="targetPoint" />
          </mxGeometry>
        </mxCell>
      </root>
    </mxGraphModel>
  </diagram>
</mxfile>
